<?xml version="1.0" encoding="utf-8"?>
<!-- Generator: Adobe Illustrator 23.1.1, SVG Export Plug-In . SVG Version: 6.00 Build 0)  -->
<svg version="1.1" id="Layer_1" focusable="false" xmlns="http://www.w3.org/2000/svg" xmlns:xlink="http://www.w3.org/1999/xlink"
	 x="0px" y="0px" viewBox="0 0 307.3 275.5" style="enable-background:new 0 0 307.3 275.5;" xml:space="preserve">
<style type="text/css">
	.st0{stroke:#000000;stroke-width:0.1714;stroke-miterlimit:10;}
	.st1{stroke:#000000;stroke-width:0.1195;stroke-miterlimit:10;}
	.st2{fill:none;stroke:#000000;stroke-width:6;stroke-linecap:square;stroke-miterlimit:10;}
</style>
<g transform="translate(275,0)">
	<g transform="translate(471,0)">
		<g>
			<path id="MJMATHI-3B1" class="st0" d="M-601,155.2c0-13,4.9-24.5,14.7-34.3s20.6-14.7,32.4-14.7c8,0,14.4,2.3,19.2,6.9
				c4.8,4.6,8.1,10.2,9.8,16.8c0.7,3.3,1.1,7.1,1.2,11.5v5c5.6-8.5,9.9-17.9,12.9-28.5c0.5-1.6,0.8-2.5,1-2.7
				c0.2-0.2,0.6-0.3,1.4-0.4c0.9-0.1,1.8-0.2,2.7-0.1c1.5,0.1,2.3,0.6,2.3,1.3c0,1-0.5,3.3-1.5,6.7c-1,3.4-3.1,8.3-6.2,14.6
				c-3.1,6.3-6.6,12-10.5,17.1l-1.9,2.4l0.2,4.1c0.2,6.4,0.7,10.7,1.4,13c0.7,2.3,1.8,3.5,3.3,3.6c1.6-0.2,3.1-0.9,4.5-1.9
				s2.3-2.3,2.9-3.9c0.2-0.8,0.5-1.3,0.9-1.4c0.3-0.1,0.8-0.2,1.6-0.3c0.7-0.1,1.4-0.1,2.2,0c1.5,0.1,2.2,0.6,2.2,1.3
				c0,0.7-0.3,1.8-1,3.3c-1.4,2.7-3.4,4.9-6,6.5c-2.6,1.6-5.1,2.5-7.5,2.6h-1.2c-7.7,0-12.9-4.1-15.6-12.3l-0.5-1.2l-1.9,1.4
				c-1.1,0.9-2.9,2.1-5.1,3.4c-2.3,1.4-4.9,2.7-7.7,3.9s-6.2,2.4-9.9,3.4c-3.8,1-7.4,1.5-11,1.5c-9,0-16.1-2.9-21.3-8.6
				C-598.4,169.6-601,162.9-601,155.2z M-571.2,177.5c5.6,0,11.2-1.2,16.8-3.6c5.6-2.4,9.8-4.9,12.5-7.4l4.1-3.8
				c-0.2-16.3-0.6-26.5-1.2-30.5c-1.6-13.1-6.4-19.9-15.8-19.7c-7.9,0.2-14.8,4.2-20.7,12.5c-3.1,4.6-5.6,10.7-7.5,18.5
				c-1.9,7.8-3,13.7-3.1,17.8c0,5.6,1.4,9.7,4.3,12.2S-575.4,177.4-571.2,177.5z"/>
		</g>
		<g>
			<path id="MJMAIN-20D7_2_" class="st0" d="M-583.9,71.9h60.1c-2.7-4.3-4.1-7.7-4.1-10.1c0-0.9,0.3-1.7,0.9-2.4
				c0.6-0.7,1.4-1,2.6-1s2,0.5,2.6,1.4c0.6,0.9,1,2,1.4,3.3c0.3,1.3,1.1,2.8,2.2,4.6c1.1,1.8,2.7,3.4,4.6,4.6
				c1.3,0.8,1.9,1.8,1.9,3.1c0,1-0.4,1.9-1.2,2.6c-0.8,0.7-1.8,1.3-2.9,1.7s-2.9,1.5-5.1,3.3c-2.3,1.7-4.5,4-6.5,6.9
				c-1.6,1.7-2.9,2.6-3.8,2.6c-0.9,0-1.7-0.3-2.4-1c-0.7-0.7-1-1.5-1-2.4s0.6-2.2,1.9-3.9c1.3-1.7,2.6-3.1,3.9-4.3
				c1.4-1.1,2.1-1.8,2.2-1.9h-29.3l-27.8-0.2"/>
		</g>
	</g>
	<path class="st1" d="M-163.3,86.3l1.5-1c2.1,2.1,5,3.1,8.9,3.1h2.4c9.3-0.2,14.1-2.5,14.6-6.9c0-3.8-4.4-5.7-13.2-5.7h-1.7
		l-1.7,0.2c-1,0-2.2,0.1-3.4,0.3c-1.3,0.2-2,0.5-2.2,0.7c-0.2,0-0.4,0.1-0.5,0.2c0-0.2-0.1-0.6-0.2-1.2c-0.1-0.6-0.2-1.4-0.2-2.6
		c0-1.5,0.2-3.3,0.5-5.3c0.3-2.1,0.5-3.4,0.5-3.9c0-1.9-1-2.9-3.1-2.9c-3,0-4.6,3.5-4.8,10.5c0,3.4,0.3,6.2,1,8.2l-1.5,0.9
		c-10.9,6.5-20.7,16.8-29.5,30.9S-209,140-209,154.5c0.2,6.7,1.4,12.3,3.6,16.8c2.2,4.5,5.1,7.8,8.7,9.9c3.7,2.2,7.5,4.1,11.5,5.7
		c4,1.6,7.8,2.9,11.5,3.8c3.7,0.9,6.6,2.3,8.9,4.1c2.3,1.8,3.4,4.2,3.4,7.2c0,2.4-0.7,4.4-2.1,6c-1.4,1.6-2.9,2.5-4.6,2.7
		c-4.1-0.1-7.7-1-10.6-2.6c-3-1.6-4.7-2.4-5.1-2.4c-1.3,0-2.3,0.5-3.1,1.5c-0.7,1.3-0.7,2.3-0.2,3.3c0.5,0.6,1.7,1.4,3.6,2.6
		c1.9,1.1,3.8,1.9,5.5,2.4c2.5,0.9,5.3,1.4,8.4,1.4c2.1,0,3.5-0.1,4.5-0.3c4.5-1.5,8.1-4.2,11-8.2c2.9-4,4.3-8.2,4.3-12.7
		c0-7.2-3.1-12.3-9.2-15.4c-2.9-1.9-6.7-3.8-11.8-5c-17.9-4-24.1-13.2-25.9-21.1c-0.1-1.5-0.2-3.1-0.2-4.8c0-3.1,0.3-6.2,0.8-9.4
		c0,0,0-0.1,0-0.1c0,0,0,0,0,0c1.4-8.5,4.6-17.2,9.6-26.2C-179.7,101.4-172,92.3-163.3,86.3z"/>
</g>
<polyline class="st2" points="289.7,18.4 289.7,257.9 17.6,257.9 17.6,18.4 17.6,17.6 289.7,17.6 "/>
<circle cx="162" cy="75.2" r="3.4"/>
</svg>
